<svg id="Grupo_32364" data-name="Grupo 32364" xmlns="http://www.w3.org/2000/svg" xmlns:xlink="http://www.w3.org/1999/xlink" width="172.906" height="108.001" viewBox="0 0 172.906 108.001">
  <defs>
    <clipPath id="clip-path">
      <rect id="Rectángulo_6335" data-name="Rectángulo 6335" width="172.906" height="108.001" fill="#fff"/>
    </clipPath>
  </defs>
  <g id="Grupo_32327" data-name="Grupo 32327" clip-path="url(#clip-path)">
    <path id="Trazado_5106" data-name="Trazado 5106" d="M181.024,20.5a2.956,2.956,0,0,0-1.048-2.261L159.24.7a2.957,2.957,0,0,0-3.964.132L136.5,18.969a2.958,2.958,0,0,0-.9,2.126V53.988h5.914V22.35L157.463,6.941l17.646,14.922-.034,26.62H161.388L151.23,37.624l14.39-15.852h-8.445L145.485,34.787a4.263,4.263,0,0,0,.088,5.958l12.519,13.243h.22v.242h22.712V48.483h-.036Z" transform="translate(-71.86 0)" fill="#fff"/>
    <path id="Trazado_5107" data-name="Trazado 5107" d="M58.246,158.672a7.852,7.852,0,0,1-.64,3.166,8.452,8.452,0,0,1-1.73,2.578,8.184,8.184,0,0,1-2.526,1.747,7.64,7.64,0,0,1-6.125,0,8.178,8.178,0,0,1-2.526-1.747,8.435,8.435,0,0,1-1.73-2.578,8.15,8.15,0,0,1,0-6.333,8.446,8.446,0,0,1,1.73-2.578,8.2,8.2,0,0,1,2.526-1.748,7.645,7.645,0,0,1,6.125,0,8.209,8.209,0,0,1,2.526,1.748,8.463,8.463,0,0,1,1.73,2.578,7.855,7.855,0,0,1,.64,3.166m-11.938,0a4.329,4.329,0,0,0,1.142,3.149,4.011,4.011,0,0,0,5.675,0,4.913,4.913,0,0,0,0-6.3,4.01,4.01,0,0,0-5.675,0,4.329,4.329,0,0,0-1.142,3.149" transform="translate(-22.431 -79.777)" fill="#fff"/>
    <path id="Trazado_5108" data-name="Trazado 5108" d="M88.048,150.54a5.856,5.856,0,0,1,2.076.329,6.8,6.8,0,0,1,1.419.709,3.908,3.908,0,0,1,1,1.038,6.3,6.3,0,0,1,1.28-1.038,9.03,9.03,0,0,1,1.488-.709,5.319,5.319,0,0,1,1.9-.329,5.422,5.422,0,0,1,4.153,1.661,6.942,6.942,0,0,1,1.557,4.914v9.516h-3.98v-9.17a3.208,3.208,0,0,0-.778-2.284,2.4,2.4,0,0,0-3.634,0,3.208,3.208,0,0,0-.778,2.284v9.17h-3.98v-9.17A3.206,3.206,0,0,0,89,155.177a2.4,2.4,0,0,0-3.633,0,3.208,3.208,0,0,0-.779,2.284v9.17H80.608V150.713h2.941l.692,1.557a6.533,6.533,0,0,1,1.073-.864,6.969,6.969,0,0,1,1.177-.589,4.169,4.169,0,0,1,1.557-.277" transform="translate(-42.717 -79.777)" fill="#fff"/>
    <path id="Trazado_5109" data-name="Trazado 5109" d="M147.191,161.786a7.152,7.152,0,0,1-.951,1.8,7.613,7.613,0,0,1-1.557,1.609,8.221,8.221,0,0,1-2.076,1.16,6.887,6.887,0,0,1-2.509.45,7.426,7.426,0,0,1-3.062-.64,8.188,8.188,0,0,1-2.526-1.748,8.425,8.425,0,0,1-1.73-2.578,8.15,8.15,0,0,1,0-6.333,8.436,8.436,0,0,1,1.73-2.578,8.2,8.2,0,0,1,2.526-1.748,7.65,7.65,0,0,1,6-.052,7.327,7.327,0,0,1,2.422,1.661,7.889,7.889,0,0,1,1.644,2.578,8.785,8.785,0,0,1,.605,3.3,4.136,4.136,0,0,1-.034.536c-.023.173-.047.341-.069.5q-.035.278-.07.519H136.464a3.7,3.7,0,0,0,1.177,1.972,3.575,3.575,0,0,0,2.457.8,4.385,4.385,0,0,0,1.332-.173,4,4,0,0,0,.917-.415,3.018,3.018,0,0,0,.692-.623Zm-7.094-7.44a3.631,3.631,0,0,0-2.544.9,4.056,4.056,0,0,0-1.263,2.215H143.9a4.062,4.062,0,0,0-1.263-2.215,3.631,3.631,0,0,0-2.544-.9" transform="translate(-70.026 -79.777)" fill="#fff"/>
    <path id="Trazado_5110" data-name="Trazado 5110" d="M198.212,160.194l-7.075-8.961a3.3,3.3,0,0,1-.05-4.032l6.606-8.807h4.844l-8.132,10.727,8.651,11.073Z" transform="translate(-100.914 -73.34)" fill="#fff"/>
    <path id="Trazado_5111" data-name="Trazado 5111" d="M223.827,150.54a6.512,6.512,0,0,1,2.491.468,5.841,5.841,0,0,1,3.27,3.27,6.521,6.521,0,0,1,.467,2.491v9.862h-2.941l-.692-1.557a7.644,7.644,0,0,1-1.211.865,6.807,6.807,0,0,1-1.419.606,6.27,6.27,0,0,1-1.868.259,5.7,5.7,0,0,1-3.98-1.263,4.184,4.184,0,0,1-1.384-3.236,4.991,4.991,0,0,1,.467-2.162,4.14,4.14,0,0,1,1.575-1.7,9.015,9.015,0,0,1,2.924-1.107,21.772,21.772,0,0,1,4.551-.4,2.8,2.8,0,0,0-.71-2.041,2.517,2.517,0,0,0-1.885-.727,2.472,2.472,0,0,0-1.263.277,3.117,3.117,0,0,0-.744.588,2.02,2.02,0,0,0-.416.865h-3.979a6.116,6.116,0,0,1,.64-2.076,5.506,5.506,0,0,1,1.366-1.7,6.733,6.733,0,0,1,2.059-1.159,7.835,7.835,0,0,1,2.682-.433m-1.211,13.149a3.463,3.463,0,0,0,2.509-.917,3.145,3.145,0,0,0,.952-2.37v-.692a20.588,20.588,0,0,0-2.838.156,5.874,5.874,0,0,0-1.678.45,1.676,1.676,0,0,0-.813.709,2.063,2.063,0,0,0-.208.934,1.59,1.59,0,0,0,.589,1.193,2.12,2.12,0,0,0,1.488.536" transform="translate(-114.764 -79.777)" fill="#fff"/>
    <path id="Trazado_5112" data-name="Trazado 5112" d="M259.29,150.54a6.855,6.855,0,0,1,2.838.606,7.328,7.328,0,0,1,2.37,1.7,8.329,8.329,0,0,1,1.626,2.578,9.034,9.034,0,0,1,0,6.506A8.316,8.316,0,0,1,264.5,164.5a7.323,7.323,0,0,1-2.37,1.7,6.856,6.856,0,0,1-2.838.606,5.682,5.682,0,0,1-1.748-.242,9.475,9.475,0,0,1-1.3-.519,5.609,5.609,0,0,1-1.107-.8v6.921h-3.98V150.713H254.1l.692,1.557a6.006,6.006,0,0,1,1.211-.865,9.421,9.421,0,0,1,1.419-.589,5.9,5.9,0,0,1,1.868-.277m-4.5,8.132a4.328,4.328,0,0,0,1.142,3.149,4.01,4.01,0,0,0,5.675,0,4.911,4.911,0,0,0,0-6.3,4.009,4.009,0,0,0-5.675,0,4.328,4.328,0,0,0-1.142,3.149" transform="translate(-133.098 -79.777)" fill="#fff"/>
    <path id="Trazado_5113" data-name="Trazado 5113" d="M290.583,141.42a2.306,2.306,0,1,1,1.575-.675,2.158,2.158,0,0,1-1.575.675m1.9,17.994h-3.98V143.5h3.98Z" transform="translate(-152.799 -72.56)" fill="#fff"/>
    <path id="Trazado_5114" data-name="Trazado 5114" d="M303.789,142.81h3.461v3.807h3.46v3.633h-3.46v6.575a2.09,2.09,0,0,0,2.249,2.249c.184,0,.334-.006.45-.017a2.168,2.168,0,0,0,.311-.052,1.314,1.314,0,0,0,.277-.1v3.461a3.1,3.1,0,0,1-.554.173,4.8,4.8,0,0,1-1.35.173,5.74,5.74,0,0,1-2.163-.4,4.679,4.679,0,0,1-1.7-1.159,5.487,5.487,0,0,1-1.107-1.8,6.538,6.538,0,0,1-.4-2.353V150.25h-2.422v-3.287h1.038a1.682,1.682,0,0,0,1.9-1.9Z" transform="translate(-159.431 -75.681)" fill="#fff"/>
    <path id="Trazado_5115" data-name="Trazado 5115" d="M332.039,150.54a6.512,6.512,0,0,1,2.491.468,5.841,5.841,0,0,1,3.27,3.27,6.521,6.521,0,0,1,.467,2.491v9.862h-2.941l-.692-1.557a7.641,7.641,0,0,1-1.211.865,6.8,6.8,0,0,1-1.419.606,6.269,6.269,0,0,1-1.868.259,5.7,5.7,0,0,1-3.98-1.263,4.184,4.184,0,0,1-1.384-3.236,4.99,4.99,0,0,1,.467-2.162,4.14,4.14,0,0,1,1.575-1.7,9.015,9.015,0,0,1,2.924-1.107,21.772,21.772,0,0,1,4.551-.4,2.8,2.8,0,0,0-.71-2.041,2.517,2.517,0,0,0-1.885-.727,2.472,2.472,0,0,0-1.263.277,3.118,3.118,0,0,0-.744.588,2.02,2.02,0,0,0-.415.865h-3.979a6.115,6.115,0,0,1,.64-2.076,5.5,5.5,0,0,1,1.367-1.7,6.725,6.725,0,0,1,2.059-1.159,7.835,7.835,0,0,1,2.682-.433m-1.211,13.149a3.463,3.463,0,0,0,2.509-.917,3.145,3.145,0,0,0,.952-2.37v-.692a20.587,20.587,0,0,0-2.838.156,5.874,5.874,0,0,0-1.678.45,1.676,1.676,0,0,0-.813.709,2.063,2.063,0,0,0-.208.934,1.59,1.59,0,0,0,.588,1.193,2.12,2.12,0,0,0,1.488.536" transform="translate(-172.109 -79.777)" fill="#fff"/>
    <rect id="Rectángulo_6333" data-name="Rectángulo 6333" width="3.98" height="21.8" transform="translate(168.926 65.054)" fill="#fff"/>
    <rect id="Rectángulo_6334" data-name="Rectángulo 6334" width="4.153" height="21.8" transform="translate(83.899 65.054)" fill="#fff"/>
    <path id="Trazado_5116" data-name="Trazado 5116" d="M101.275,203.487v3.755h5.21v1.872h-5.21v5.628H99.3V201.615h8.334v1.872Z" transform="translate(-52.624 -106.843)" fill="#fff"/>
    <path id="Trazado_5117" data-name="Trazado 5117" d="M126.144,203.9a1.115,1.115,0,0,1-.814-.331,1.1,1.1,0,0,1-.336-.819,1.092,1.092,0,0,1,.336-.809,1.167,1.167,0,0,1,1.628,0,1.093,1.093,0,0,1,.335.809,1.146,1.146,0,0,1-1.149,1.15m.936,10.838h-1.872v-9.383h1.872Z" transform="translate(-66.239 -106.843)" fill="#fff"/>
    <path id="Trazado_5118" data-name="Trazado 5118" d="M143.67,209.364a3.559,3.559,0,0,1,1.46.306,3.765,3.765,0,0,1,1.2.835,3.869,3.869,0,0,1,.8,1.277,4.476,4.476,0,0,1,.3,1.654v5.414h-1.873v-5.414a2.209,2.209,0,0,0-.178-.875,2.4,2.4,0,0,0-1.185-1.237,1.924,1.924,0,0,0-.834-.188,2.153,2.153,0,0,0-.9.188,2.387,2.387,0,0,0-.728.5,2.357,2.357,0,0,0-.488.728,2.189,2.189,0,0,0-.178.88v5.414h-1.873v-9.383h1.353l.417.947a3.3,3.3,0,0,1,.641-.53,5.159,5.159,0,0,1,.844-.351,3.913,3.913,0,0,1,1.222-.168" transform="translate(-73.763 -110.95)" fill="#fff"/>
    <path id="Trazado_5119" data-name="Trazado 5119" d="M169.4,209.365a4.13,4.13,0,0,1,1.491.259,3.513,3.513,0,0,1,1.155.707,3.17,3.17,0,0,1,.743,1.053,3.251,3.251,0,0,1,.265,1.318v6.147H171.7l-.417-.936a2.91,2.91,0,0,1-.651.519,3.817,3.817,0,0,1-.845.361,4.162,4.162,0,0,1-1.221.158,3.374,3.374,0,0,1-2.4-.778,2.657,2.657,0,0,1-.83-2.031,2.991,2.991,0,0,1,.27-1.287,2.31,2.31,0,0,1,.926-.977,5.555,5.555,0,0,1,1.781-.631,14.685,14.685,0,0,1,2.854-.229V212.7a1.5,1.5,0,0,0-.448-1.14,1.847,1.847,0,0,0-1.323-.427,2.214,2.214,0,0,0-1.364.336,1.3,1.3,0,0,0-.509.815h-1.872A2.905,2.905,0,0,1,166.7,210.2a4,4,0,0,1,2.7-.834m-.722,7.917a2.593,2.593,0,0,0,1.842-.61,1.961,1.961,0,0,0,.651-1.486v-.509a13.962,13.962,0,0,0-2.02.117,4.74,4.74,0,0,0-1.206.315,1.153,1.153,0,0,0-.585.488,1.4,1.4,0,0,0-.148.646.932.932,0,0,0,.377.717,1.634,1.634,0,0,0,1.089.321" transform="translate(-87.62 -110.951)" fill="#fff"/>
    <path id="Trazado_5120" data-name="Trazado 5120" d="M195.75,209.364a3.559,3.559,0,0,1,1.46.306,3.765,3.765,0,0,1,1.2.835,3.868,3.868,0,0,1,.8,1.277,4.475,4.475,0,0,1,.3,1.654v5.414h-1.873v-5.414a2.209,2.209,0,0,0-.178-.875,2.4,2.4,0,0,0-1.185-1.237,1.924,1.924,0,0,0-.834-.188,2.153,2.153,0,0,0-.9.188,2.387,2.387,0,0,0-.728.5,2.357,2.357,0,0,0-.488.728,2.189,2.189,0,0,0-.178.88v5.414h-1.873v-9.383h1.353l.417.947a3.3,3.3,0,0,1,.641-.53,5.159,5.159,0,0,1,.844-.351,3.913,3.913,0,0,1,1.222-.168" transform="translate(-101.363 -110.95)" fill="#fff"/>
    <path id="Trazado_5121" data-name="Trazado 5121" d="M225.854,215.409a5.143,5.143,0,0,1-.519,1.4,4.154,4.154,0,0,1-.9,1.124,4.11,4.11,0,0,1-1.241.748,4.16,4.16,0,0,1-1.511.269,4.366,4.366,0,0,1-3.18-1.338,4.472,4.472,0,0,1-.956-1.511,5.676,5.676,0,0,1,0-3.877,4.44,4.44,0,0,1,2.386-2.5,4.319,4.319,0,0,1,1.75-.356,4.15,4.15,0,0,1,1.511.27,4.065,4.065,0,0,1,1.241.753,4.144,4.144,0,0,1,.9,1.13,5.53,5.53,0,0,1,.524,1.389h-1.985a2.723,2.723,0,0,0-.773-1.282,2.026,2.026,0,0,0-1.414-.488,2.327,2.327,0,0,0-.977.219,2.459,2.459,0,0,0-.834.626,3.346,3.346,0,0,0,0,4.356,2.441,2.441,0,0,0,.834.626,2.322,2.322,0,0,0,.977.22,2.046,2.046,0,0,0,1.42-.489,2.64,2.64,0,0,0,.768-1.282Z" transform="translate(-115.105 -110.95)" fill="#fff"/>
    <path id="Trazado_5122" data-name="Trazado 5122" d="M251.683,216.142a5.437,5.437,0,0,1-.59,1.089,4.109,4.109,0,0,1-.855.9,3.856,3.856,0,0,1-1.155.605,4.638,4.638,0,0,1-1.47.219,4.373,4.373,0,0,1-1.75-.352,4.326,4.326,0,0,1-1.425-.987,4.589,4.589,0,0,1-.957-1.511,5.605,5.605,0,0,1,0-3.878,4.773,4.773,0,0,1,.936-1.511,4.2,4.2,0,0,1,1.394-.992,4.228,4.228,0,0,1,3.4,0,4.2,4.2,0,0,1,1.394.992,4.781,4.781,0,0,1,.936,1.511,5.215,5.215,0,0,1,.346,1.934,2.486,2.486,0,0,1-.02.321c-.014.1-.027.2-.04.27-.014.095-.027.176-.041.244h-6.676a2.163,2.163,0,0,0,.254.834,2.709,2.709,0,0,0,.534.7,2.414,2.414,0,0,0,.769.478,2.532,2.532,0,0,0,.946.179,2.266,2.266,0,0,0,1.358-.366,3.362,3.362,0,0,0,.728-.672Zm-4.172-5.007a2.169,2.169,0,0,0-1.582.636,2.946,2.946,0,0,0-.819,1.664h5.007a2.853,2.853,0,0,0-.829-1.658,2.453,2.453,0,0,0-1.776-.641" transform="translate(-128.847 -110.95)" fill="#fff"/>
    <path id="Trazado_5123" data-name="Trazado 5123" d="M11.677,148.045H4.153v-8.651H0v21.8H4.153v-9.17h7.525Z" transform="translate(0 -73.87)" fill="#fff"/>
    <path id="Trazado_5124" data-name="Trazado 5124" d="M28.342,139.394v21.8h4.153v-21.8Z" transform="translate(-15.019 -73.87)" fill="#fff"/>
  </g>
</svg>
